<?xml version="1.0" encoding="UTF-8"?>
<svg width="60px" height="48px" viewBox="0 0 60 48" version="1.1" xmlns="http://www.w3.org/2000/svg" xmlns:xlink="http://www.w3.org/1999/xlink">
    <!-- Generator: Sketch 51.3 (57544) - http://www.bohemiancoding.com/sketch -->
    <title>phantom</title>
    <desc>Created with Sketch.</desc>
    <defs></defs>
    <g id="phantom" stroke="none" stroke-width="1" fill="none" fill-rule="evenodd">
        <path d="M23.877156,21.5045424 C23.2732731,22.7863896 22.549243,24.6202374 22.2413201,26.5579884 C21.6881165,30.0339222 21.4723157,33.8369826 21.4055202,35.3270355 C21.3883932,35.6935543 21.0843881,35.9778633 20.7161567,35.9778633 L20.3727595,35.9778633 C19.9788374,35.9778633 19.6654124,35.6567312 19.6833959,35.2662346 C19.7544731,33.7342203 19.9719866,29.9842538 20.5157703,26.5579884 C20.8883957,24.2167236 21.503382,22.0310306 21.8896966,20.7837062 L16.667837,19.219649 C15.8697167,18.9807267 15.0407677,18.8591247 14.207537,18.8591247 L11.8671262,18.8591247 C11.4894749,18.8591247 11.1820444,18.5534069 11.1820444,18.1748992 L11.1820444,17.9942089 L48.8615439,17.9942089 L48.8615439,18.1748992 C48.8615439,18.5534069 48.5549698,18.8591247 48.1773184,18.8591247 L45.8369077,18.8591247 C45.0036769,18.8591247 44.174728,18.9807267 43.3766077,19.219649 L38.1036944,20.7989979 C38.4902137,22.0488424 39.1015153,24.226262 39.4720695,26.5579884 C40.0167096,29.9842538 40.2342231,33.7342203 40.3053002,35.2662346 C40.3232836,35.6567312 40.0098588,35.9778633 39.6159367,35.9778633 L39.2725395,35.9778633 C38.904308,35.9778633 38.6003029,35.6935543 38.5831759,35.3270355 C38.5163804,33.8369826 38.2997233,30.0339222 37.747376,26.5579884 C37.4412493,24.631541 36.7238558,22.807788 36.1221202,21.527031 C35.7783526,21.6999488 35.4459894,21.8958877 35.1265099,22.1124069 L33.5893577,22.1124069 C33.526844,22.1124069 33.4668993,22.0918545 33.4232253,22.0550313 L32.7672595,21.5172421 C32.6816243,21.4478776 32.5694421,21.4101981 32.4495529,21.4101981 L27.5948918,21.4101981 C27.4767152,21.4101981 27.3611077,21.4487339 27.2771851,21.5180985 L26.6212193,22.0558877 C26.5775453,22.0909981 26.5176007,22.1124069 26.455087,22.1124069 L24.9170783,22.1124069 C24.584063,21.8864464 24.2368339,21.6829002 23.877156,21.5045424 Z M45.9168111,14.0873586 L40.6409047,14.0873586 C40.4516508,14.0873586 40.2983638,13.8670085 40.2983638,13.5949561 L40.2983638,13.3487548 C40.2983638,13.0767024 40.4516508,12.8563523 40.6409047,12.8563523 L46.0787416,12.8563523 L46.0787416,13.951635 C46.1183814,13.9356132 46.1617103,13.9267926 46.2071088,13.9267926 L48.0910838,13.9267926 C48.1365477,13.9267926 48.179936,13.9356386 48.2196222,13.9517043 L48.2196222,12.8563523 L53.6574591,12.8563523 C53.846713,12.8563523 54,13.0767024 54,13.3487548 L54,13.5949561 C54,13.8670085 53.846713,14.0873586 53.6574591,14.0873586 L48.3813814,14.0873586 C48.4144848,14.1400751 48.4336247,14.2024588 48.4336247,14.2693335 L48.4336247,16.3673965 C48.4336247,16.5566504 48.2803376,16.7099374 48.0910838,16.7099374 L46.2071088,16.7099374 C46.0178549,16.7099374 45.8645679,16.5566504 45.8645679,16.3673965 L45.8645679,14.2693335 C45.8645679,14.2024588 45.8837077,14.1400751 45.9168111,14.0873586 Z M13.9212584,13.9517043 L13.9212584,12.8563523 L19.3590952,12.8563523 C19.5483491,12.8563523 19.7016362,13.0767024 19.7016362,13.3487548 L19.7016362,13.5949561 C19.7016362,13.8670085 19.5483491,14.0873586 19.3590952,14.0873586 L14.0830176,14.0873586 C14.116121,14.1400751 14.1352608,14.2024588 14.1352608,14.2693335 L14.1352608,16.3673965 C14.1352608,16.5566504 13.9819738,16.7099374 13.7927199,16.7099374 L11.908745,16.7099374 C11.7194911,16.7099374 11.5662041,16.5566504 11.5662041,16.3673965 L11.5662041,14.2693335 C11.5662041,14.2024588 11.5853439,14.1400751 11.6184473,14.0873586 L6.3425409,14.0873586 C6.15328705,14.0873586 6,13.8670085 6,13.5949561 L6,13.3487548 C6,13.0767024 6.15328705,12.8563523 6.3425409,12.8563523 L11.7803778,12.8563523 L11.7803778,13.951635 C11.8200176,13.9356132 11.8633464,13.9267926 11.908745,13.9267926 L13.7927199,13.9267926 C13.8381838,13.9267926 13.8815722,13.9356386 13.9212584,13.9517043 Z M31.5207532,25.5110103 L31.5207532,26.4116948 C31.5207532,26.6403766 31.367466,26.8255985 31.1782123,26.8255985 L30.8786602,26.8255985 L30.8786602,28.2706073 L29.1659557,28.2706073 L29.1659557,26.8255985 L28.8660612,26.8255985 C28.6768073,26.8255985 28.5235202,26.6403766 28.5235202,26.4116948 L28.5235202,25.5110103 C28.3979581,25.4496391 28.3094321,25.3009523 28.3094321,25.1271666 L28.3094321,23.9889317 L31.7348412,23.9889317 L31.7348412,25.1271666 C31.7348412,25.3009522 31.6463153,25.449639 31.5207532,25.5110103 Z M32.5911935,31.4284919 L32.5911935,31.8673724 C32.5911935,32.2458801 32.2846193,32.5524543 31.9061116,32.5524543 L28.1381617,32.5524543 C27.759654,32.5524543 27.4530799,32.2458801 27.4530799,31.8673724 L27.4530799,28.9557748 C27.4530799,28.5772671 27.759654,28.2706929 28.1381617,28.2706929 L31.9061116,28.2706929 C32.2846193,28.2706929 32.5911935,28.5772671 32.5911935,28.9557748 L32.5911935,29.2876113 L33.9363803,29.2876113 C34.0512384,29.2876113 34.143332,29.364683 34.143332,29.4588818 L34.143332,31.2572215 C34.143332,31.3514202 34.0512384,31.4284919 33.9363803,31.4284919 L32.5911935,31.4284919 Z M26.0828307,29.3411332 L27.4529943,29.3411332 L27.4529943,31.4820139 L26.0828307,31.4820139 C25.8935768,31.4820139 25.7402898,31.3287268 25.7402898,31.139473 L25.7402898,29.6836742 C25.7402898,29.4944203 25.8935768,29.3411332 26.0828307,29.3411332 Z M30.0221367,31.9101901 C30.849373,31.9101901 31.5207532,31.2396663 31.5207532,30.4115736 C31.5207532,29.583481 30.849373,28.9129571 30.0221367,28.9129571 C29.1949004,28.9129571 28.5235202,29.583481 28.5235202,30.4115736 C28.5235202,31.2396663 29.1949004,31.9101901 30.0221367,31.9101901 Z M30.0221367,29.3411332 C30.6130197,29.3411332 31.092577,29.8206906 31.092577,30.4115736 C31.092577,31.0024566 30.6130197,31.4820139 30.0221367,31.4820139 C29.4312537,31.4820139 28.9516963,31.0024566 28.9516963,30.4115736 C28.9516963,29.8206906 29.4312537,29.3411332 30.0221367,29.3411332 Z M12.8508181,12 C13.3235245,12 13.7071703,12.3827895 13.7071703,12.8563523 L13.7071703,13.7127045 L11.9944658,13.7127045 L11.9944658,12.8563523 C11.9944658,12.3827895 12.3781116,12 12.8508181,12 Z M47.1491819,12 C47.6218883,12 48.0055341,12.3827895 48.0055341,12.8563523 L48.0055341,13.7127045 L46.2928296,13.7127045 L46.2928296,12.8563523 C46.2928296,12.3827895 46.6764755,12 47.1491819,12 Z M22.6720652,22.2762271 C22.9101312,22.2762271 23.1028105,22.0844042 23.1028105,21.848051 C23.1028105,21.6116978 22.9101312,21.4198749 22.6720652,21.4198749 C22.4339993,21.4198749 22.2413201,21.6116978 22.2413201,21.848051 C22.2413201,22.0844042 22.4339993,22.2762271 22.6720652,22.2762271 Z M37.3166309,22.2762271 C37.5546968,22.2762271 37.747376,22.0844042 37.747376,21.848051 C37.747376,21.6116978 37.5546968,21.4198749 37.3166309,21.4198749 C37.078565,21.4198749 36.8858857,21.6116978 36.8858857,21.848051 C36.8858857,22.0844042 37.078565,22.2762271 37.3166309,22.2762271 Z M26.7727937,22.1792024 L27.4287595,21.6414132 C27.4724335,21.6054464 27.5332345,21.5857503 27.5948918,21.5857503 L32.4495529,21.5857503 C32.5120665,21.5857503 32.5711549,21.6054464 32.6156851,21.6414132 L33.271651,22.1792024 C33.3564298,22.2494233 33.4694684,22.2879592 33.5893577,22.2879592 L34.8696043,22.2879592 C34.8464828,22.3042298 34.8207922,22.3187878 34.798527,22.3367712 L33.0481431,23.6469902 C32.7518452,23.8687855 32.3913208,23.9886747 32.0205203,23.9886747 L30.0217942,23.9886747 L28.0239243,23.9886747 C27.6531239,23.9886747 27.2925995,23.8687855 26.9963016,23.6469902 L25.2459176,22.3367712 C25.2227961,22.3187878 25.1979619,22.3042298 25.1748404,22.2879592 L26.455087,22.2879592 C26.5741199,22.2879592 26.6897275,22.2485669 26.7727937,22.1792024 Z M11.193177,17.7801209 C11.2214366,17.43758 11.4954694,17.1592655 11.8457174,17.1515583 C12.1891147,17.1429948 12.656683,17.121586 13.2295827,17.0693485 C14.5201055,16.9520282 19.337087,15.2889921 23.5469147,14.9053463 C27.272047,14.5653745 30.0217942,14.5850706 30.0217942,14.5850706 C30.0217942,14.5850706 32.7723977,14.5653745 36.4966736,14.9053463 C40.7065013,15.2889921 45.5234828,16.9520282 46.814862,17.0693485 C47.3877616,17.121586 47.85533,17.1429948 48.1987272,17.1515583 C48.5489753,17.1592655 48.823008,17.43758 48.8512676,17.7801209 L11.193177,17.7801209 Z" id="Mask" fill="#3B3E40" fill-rule="nonzero"></path>
    </g>
</svg>